<svg xmlns="http://www.w3.org/2000/svg" version="1.1" xmlns:xlink="http://www.w3.org/1999/xlink" width="512" height="512" x="0" y="0" viewBox="0 0 512 512" style="enable-background:new 0 0 512 512" xml:space="preserve" class=""><g><path d="M451.151 2.163a7.29 7.29 0 0 0-2.404-1.582 7.328 7.328 0 0 0-2.844-.571H7.421a7.395 7.395 0 0 0-5.23 2.153A7.404 7.404 0 0 0 0 7.427v497.142c0 1.902.73 3.799 2.191 5.243a7.408 7.408 0 0 0 5.23 2.173h497.167a7.372 7.372 0 0 0 5.212-2.173 7.414 7.414 0 0 0 2.199-5.243V66.076c0-.929-.195-1.889-.579-2.826a7.28 7.28 0 0 0-1.62-2.394L451.151 2.163zM60.628 491.087H34.68v-18.532h25.946c.002.001.002 18.532.002 18.532z" style="" fill="#e6eaee" data-original="#34495e" class="" opacity="1"></path><path d="M78.756.01v168c0 2.575 1.004 5.005 2.839 6.799a9.493 9.493 0 0 0 6.82 2.839h305.513a9.55 9.55 0 0 0 6.82-2.839c1.828-1.797 2.796-4.227 2.796-6.799V.01H78.756z" style="" fill="#9da8b4" data-original="#5d6d7e" class="" opacity="1"></path><path d="M147.712.01a7.395 7.395 0 0 0-5.23 2.153 7.358 7.358 0 0 0-2.194 5.263V168.01c0 1.902.717 3.812 2.191 5.251a7.401 7.401 0 0 0 5.23 2.166H393.92a7.347 7.347 0 0 0 5.225-2.166 7.323 7.323 0 0 0 2.199-5.251V7.427a7.351 7.351 0 0 0-2.199-5.263A7.362 7.362 0 0 0 393.92.011L147.712.01zm209.469 139.856h-31.089V35.584h31.089v104.282z" style="" fill="#34495e" data-original="#e6eaee" class="" opacity="1"></path><path d="M90.135 511.985V290.56c0-3.354 1.318-6.513 3.686-8.891a12.539 12.539 0 0 1 8.929-3.691h306.506c3.359 0 6.536 1.306 8.916 3.691a12.44 12.44 0 0 1 3.692 8.891v221.425H90.135z" style="" fill="#9da8b4" data-original="#5d6d7e" class="" opacity="1"></path><path d="M416.666 290.56c0-1.871-.709-3.786-2.161-5.217a7.412 7.412 0 0 0-5.251-2.186H102.751c-1.91 0-3.812.74-5.251 2.186a7.367 7.367 0 0 0-2.161 5.217v221.425h321.326V290.56z" style="" fill="#667b90" data-original="#ffffff" class="" opacity="1"></path><path d="M95.334 474.98h321.331v37.01H95.334zM115.146 346.596h281.728v2.982H115.146zM115.146 378.673h281.728v2.982H115.146zM115.146 410.801h281.728v2.944H115.146zM115.146 442.903h281.728v2.97H115.146z" style="" fill="#f85339" data-original="#ff7059" class="" opacity="1"></path></g></svg>