<svg id="Layer_1" enable-background="new 0 0 512 512" height="512" viewBox="0 0 512 512" width="512" xmlns="http://www.w3.org/2000/svg"><g><g><g id="XMLID_1_" fill="#ef5350"><path d="m412.6 141.4v.1c0 .6-.2.9-.4 1.1s-.6.5-1.2.5h-11.4c-.4-.1-.9-.2-1.4-.2s-.9.1-1.4.2h-281.7c-.4-.1-.9-.2-1.4-.2s-.9.1-1.4.2h-11.3c-1 0-1.7-.8-1.7-1.7v-32.1c0-1 .8-1.7 1.7-1.7h94.2 121.4 94.4c1 0 1.7.8 1.7 1.7z"/><path d="m393.4 152.7v289.3c0 13.3-10.8 24.1-24.1 24.1h-226.5c-13.3 0-24.1-10.8-24.1-24.1v-289.3zm-61.4 243.5v-173.5c0-2.7-2.2-4.9-4.9-4.9s-4.9 2.2-4.9 4.9v173.4c0 2.7 2.2 4.9 4.9 4.9 2.8 0 4.9-2.1 4.9-4.8zm-71 12.8v-199.1c0-2.7-2.2-4.9-4.9-4.9s-4.9 2.2-4.9 4.9v199c0 2.7 2.2 4.9 4.9 4.9s4.9-2.1 4.9-4.8zm-71.1-12.8v-173.5c0-2.7-2.2-4.9-4.9-4.9s-4.9 2.2-4.9 4.9v173.4c0 2.7 2.2 4.9 4.9 4.9s4.8-2.1 4.9-4.8z"/><path d="m321.5 57.3v40.5h-9.7v-40.5c0-.9-.7-1.7-1.7-1.7h-108.3c-.9 0-1.7.7-1.7 1.7v40.5h-9.8v-40.5c0-6.3 5.1-11.4 11.4-11.4h108.3c6.4 0 11.5 5.1 11.5 11.4z"/></g></g></g></svg>