<svg xmlns="http://www.w3.org/2000/svg" version="1.1" xmlns:xlink="http://www.w3.org/1999/xlink" width="512" height="512" x="0" y="0" viewBox="0 0 100 100" style="enable-background:new 0 0 512 512" xml:space="preserve" class=""><g><g fill="#008caa"><path d="M36.857 10.315c0-2.206 1.794-4 4-4h18.286c2.206 0 4 1.794 4 4v1.46H36.857zM92.481 16.814H7.519c-.837 0-1.519-.682-1.519-1.52s.682-1.52 1.519-1.52h84.962c.837 0 1.519.682 1.519 1.52s-.682 1.52-1.519 1.52zM50 32.249a.743.743 0 0 0-.742.742v46.517a.742.742 0 0 0 1.484 0V32.991a.743.743 0 0 0-.742-.742zM64.616 32.249a.743.743 0 0 0-.742.742v46.517a.742.742 0 0 0 1.483 0V32.991a.743.743 0 0 0-.741-.742zM35.384 32.249a.742.742 0 0 0-.741.742v46.517a.742.742 0 0 0 1.483 0V32.991a.743.743 0 0 0-.742-.742z" fill="#e9778a" opacity="1" data-original="#008caa" class=""></path><path d="m12.736 18.814 5.931 72.994c.085 1.052 1.203 1.876 2.544 1.876H78.79c1.341 0 2.458-.824 2.544-1.876l5.931-72.994zm25.39 60.693c0 1.512-1.23 2.741-2.742 2.741s-2.741-1.229-2.741-2.741V32.991c0-1.512 1.229-2.742 2.741-2.742s2.742 1.23 2.742 2.742v46.517zm14.616 0c0 1.512-1.23 2.741-2.742 2.741s-2.742-1.229-2.742-2.741V32.991c0-1.512 1.23-2.742 2.742-2.742s2.742 1.23 2.742 2.742v46.517zm14.615 0c0 1.512-1.229 2.741-2.741 2.741s-2.742-1.229-2.742-2.741V32.991c0-1.512 1.23-2.742 2.742-2.742s2.741 1.23 2.741 2.742v46.517z" fill="#e9778a" opacity="1" data-original="#008caa" class=""></path></g></g></svg>