<svg id="Capa_1" enable-background="new 0 0 512 512" height="512" viewBox="0 0 512 512" width="512" xmlns="http://www.w3.org/2000/svg"><g><path d="m331.356 6.327v158.283c0 2.845-2.306 5.151-5.151 5.151h-15.622c-2.447 0-4.503-1.733-5.043-4.119-1.875-8.292-9.291-14.486-18.158-14.486-8.858 0-16.281 6.195-18.158 14.487-.54 2.386-2.596 4.118-5.043 4.118h-16.374c-2.447 0-4.503-1.733-5.043-4.119-1.875-8.292-9.291-14.486-18.158-14.486s-16.283 6.194-18.158 14.486c-.54 2.386-2.596 4.119-5.043 4.119h-15.612c-2.845 0-5.151-2.306-5.151-5.151v-158.283c0-2.845 2.306-5.151 5.151-5.151h140.411c2.846 0 5.152 2.306 5.152 5.151z" fill="#eec06b"/><path d="m326.205 1.176h-25.755c2.845 0 5.151 2.306 5.151 5.151v158.283c0 .314-.038.618-.092.917.009.039.022.076.031.115.54 2.386 2.596 4.119 5.043 4.119h15.622c2.845 0 5.151-2.306 5.151-5.151v-158.283c0-2.845-2.306-5.151-5.151-5.151z" fill="#e9a52d"/><g><path d="m464.746 360.521h-134.526l-47.254 47.254v55.795l47.254 47.254h134.526l47.254-47.254v-55.795z" fill="#9cd169"/><path d="m486.245 395.654v79.393l25.755-11.477v-55.795z" fill="#7dc03a"/><g fill="#ddebfd"><path d="m330.22 360.521h-39.198c-4.449 0-8.056 3.607-8.056 8.056v39.198c26.098 0 47.254-21.156 47.254-47.254z"/><path d="m512 502.768v-39.198c-26.098 0-47.254 21.156-47.254 47.254h39.198c4.449 0 8.056-3.606 8.056-8.056z"/><path d="m512 407.775v-39.198c0-4.449-3.607-8.056-8.056-8.056h-39.198c0 26.098 21.156 47.254 47.254 47.254z"/><path d="m282.966 463.57v39.198c0 4.449 3.607 8.056 8.056 8.056h39.198c0-26.098-21.156-47.254-47.254-47.254z"/></g><path d="m486.245 502.768c0 4.449-3.607 8.056-8.056 8.056h25.755c3.059 0 5.719-1.705 7.083-4.216.248-.456.453-.94.61-1.444.235-.757.362-1.561.362-2.396v-39.198c-9.504 0-18.345 2.815-25.755 7.643v31.555z" fill="#bed9fd"/><path d="m511.028 364.737c-1.364-2.511-4.025-4.216-7.083-4.216h-25.755c4.449 0 8.056 3.607 8.056 8.056v31.555c7.41 4.828 16.251 7.643 25.755 7.643v-39.198c-.001-1.391-.353-2.699-.973-3.84z" fill="#bed9fd"/><path d="m406.985 428.909c-7.58-2.795-14.637-5.84-16.805-6.79-1.675-1.347-1.619-3.223-1.506-4.006.156-1.088.946-3.745 4.902-4.937 8.693-2.621 16.743 3.737 16.977 3.926 3.266 2.708 8.112 2.277 10.847-.976 2.745-3.267 2.323-8.141-.943-10.886-.38-.319-6.419-5.296-15.248-7.315v-4.358c0-4.268-3.459-7.726-7.726-7.726s-7.726 3.459-7.726 7.726v4.639c-.213.059-.424.11-.637.174-8.525 2.568-14.557 9.288-15.741 17.537-1.111 7.74 2.244 15.186 8.756 19.432 2.093 1.368 16.723 7.033 19.504 8.058 2.704.998 8.904 3.812 8.087 8.392-.615 3.446-4.813 7.01-10.773 7.01-6.132 0-12.033-2.472-15.786-6.612-2.865-3.162-7.75-3.402-10.913-.537-3.162 2.866-3.402 7.753-.536 10.913 4.649 5.13 11.044 8.803 18.041 10.546v4.657c0 4.268 3.459 7.726 7.726 7.726s7.726-3.459 7.726-7.726v-4.196c10.125-2.178 18.022-9.52 19.727-19.066 1.535-8.609-2.373-19.857-17.953-25.605z" fill="#ddebfd"/></g><g><path d="m181.78 360.521h-134.526l-47.254 47.254v55.795l47.254 47.254h134.526l47.254-47.254v-55.795z" fill="#9cd169"/><path d="m203.279 395.654v79.393l25.755-11.477v-55.795z" fill="#7dc03a"/><g fill="#ddebfd"><path d="m47.254 360.521h-39.198c-4.449 0-8.056 3.607-8.056 8.056v39.198c26.098 0 47.254-21.156 47.254-47.254z"/><path d="m229.034 502.768v-39.198c-26.098 0-47.254 21.156-47.254 47.254h39.198c4.449 0 8.056-3.606 8.056-8.056z"/><path d="m229.034 407.775v-39.198c0-4.449-3.607-8.056-8.056-8.056h-39.198c0 26.098 21.156 47.254 47.254 47.254z"/><path d="m0 463.57v39.198c0 4.449 3.607 8.056 8.056 8.056h39.198c0-26.098-21.156-47.254-47.254-47.254z"/></g><path d="m203.279 502.768c0 4.449-3.607 8.056-8.056 8.056h25.755c3.059 0 5.719-1.705 7.083-4.216.248-.456.453-.94.61-1.444.235-.757.362-1.561.362-2.396v-39.198c-9.504 0-18.345 2.815-25.755 7.643v31.555z" fill="#bed9fd"/><path d="m228.062 364.737c-1.364-2.511-4.025-4.216-7.083-4.216h-25.755c4.449 0 8.056 3.607 8.056 8.056v31.555c7.41 4.828 16.251 7.643 25.755 7.643v-39.198c-.001-1.391-.353-2.699-.973-3.84z" fill="#bed9fd"/><path d="m124.019 428.909c-7.58-2.795-14.637-5.84-16.805-6.79-1.675-1.347-1.619-3.223-1.506-4.006.156-1.088.946-3.745 4.902-4.937 8.693-2.621 16.743 3.737 16.977 3.926 3.266 2.708 8.112 2.277 10.847-.976 2.745-3.267 2.323-8.141-.943-10.886-.38-.319-6.419-5.296-15.248-7.315v-4.358c0-4.268-3.459-7.726-7.726-7.726s-7.726 3.459-7.726 7.726v4.639c-.213.059-.424.11-.637.174-8.525 2.568-14.557 9.288-15.741 17.537-1.111 7.74 2.244 15.186 8.756 19.432 2.093 1.368 16.723 7.033 19.504 8.058 2.704.998 8.904 3.812 8.087 8.392-.615 3.446-4.813 7.01-10.773 7.01-6.132 0-12.033-2.472-15.786-6.612-2.865-3.162-7.751-3.402-10.913-.537-3.162 2.866-3.402 7.753-.536 10.913 4.649 5.13 11.044 8.803 18.041 10.546v4.657c0 4.268 3.459 7.726 7.726 7.726s7.726-3.459 7.726-7.726v-4.196c10.125-2.178 18.022-9.52 19.727-19.066 1.535-8.609-2.373-19.857-17.953-25.605z" fill="#ddebfd"/></g><path d="m392.42 323.672c-15.398-20.946-35.717-38.32-58.76-50.24-21.54-11.143-45.568-17.515-69.934-18.635v-40.095c0-4.268-3.459-7.726-7.726-7.726s-7.726 3.459-7.726 7.726v40.095c-24.365 1.12-48.394 7.492-69.934 18.635-23.042 11.92-43.361 29.294-58.76 50.24-2.527 3.439-1.789 8.275 1.649 10.802 3.439 2.527 8.275 1.789 10.802-1.648 13.998-19.042 32.466-34.834 53.409-45.668 44.144-22.836 96.951-22.849 141.12 0 20.943 10.834 39.411 26.626 53.409 45.668 1.514 2.059 3.857 3.15 6.231 3.15 1.589-.001 3.192-.489 4.57-1.502 3.439-2.527 4.177-7.363 1.65-10.802z" fill="#75cff9"/><g fill="#4980ac"><path d="m282.966 57.328h-53.932c-4.267 0-7.726-3.459-7.726-7.726s3.459-7.726 7.726-7.726h53.932c4.267 0 7.726 3.459 7.726 7.726s-3.459 7.726-7.726 7.726z"/><path d="m282.966 101.123h-53.932c-4.267 0-7.726-3.459-7.726-7.726 0-4.268 3.459-7.726 7.726-7.726h53.932c4.267 0 7.726 3.459 7.726 7.726s-3.459 7.726-7.726 7.726z"/></g></g></svg>