<svg id="Icons" height="512" viewBox="0 0 60 60" width="512" xmlns="http://www.w3.org/2000/svg"><path d="m11.026 48.39a1 1 0 0 1 -.84-1.54l10.514-16.39a1 1 0 0 1 1.684 1.08l-10.515 16.39a1 1 0 0 1 -.843.46z" fill="#b9bfcc"/><path d="m49 48.39a1 1 0 0 1 -.842-.458l-10.57-16.39a1 1 0 0 1 1.682-1.084l10.57 16.39a1 1 0 0 1 -.84 1.542z" fill="#b9bfcc"/><path d="m30 47a1 1 0 0 1 -1-1v-12a1 1 0 0 1 2 0v12a1 1 0 0 1 -1 1z" fill="#b9bfcc"/><circle cx="30" cy="18" fill="#d6aa47" r="17"/><circle cx="30" cy="18" fill="#fccb55" r="13"/><circle cx="8" cy="52" fill="#346d92" r="7"/><circle cx="52" cy="52" fill="#346d92" r="7"/><circle cx="30" cy="52" fill="#346d92" r="7"/><path d="m31 17.1v-5.916a3 3 0 0 1 2 2.816 1 1 0 0 0 2 0 5.009 5.009 0 0 0 -4-4.9v-.1a1 1 0 0 0 -2 0v.1a5 5 0 0 0 0 9.8v5.917a3 3 0 0 1 -2-2.817 1 1 0 0 0 -2 0 5.009 5.009 0 0 0 4 4.9v.1a1 1 0 0 0 2 0v-.1a5 5 0 0 0 0-9.8zm-4-3.1a3 3 0 0 1 2-2.816v5.632a3 3 0 0 1 -2-2.816zm4 10.816v-5.632a2.982 2.982 0 0 1 0 5.632z" fill="#bc923f"/><path d="m5 53a1 1 0 0 1 -1-1 4 4 0 0 1 4-4 1 1 0 0 1 0 2 2 2 0 0 0 -2 2 1 1 0 0 1 -1 1z" fill="#4d88a9"/><path d="m49 53a1 1 0 0 1 -1-1 4 4 0 0 1 4-4 1 1 0 0 1 0 2 2 2 0 0 0 -2 2 1 1 0 0 1 -1 1z" fill="#4d88a9"/><path d="m27 53a1 1 0 0 1 -1-1 4 4 0 0 1 4-4 1 1 0 0 1 0 2 2 2 0 0 0 -2 2 1 1 0 0 1 -1 1z" fill="#4d88a9"/><g fill="#bc923f"><path d="m47 18c0 .33-.01.67-.03 1h-4.01c.03-.33.04-.66.04-1s-.01-.67-.04-1h4.01c.02.33.03.67.03 1z"/><path d="m42.021 5.979c.233.233.466.481.686.729l-2.836 2.835c-.212-.255-.438-.495-.679-.735s-.48-.467-.735-.679l2.835-2.836c.248.219.495.453.729.686z"/><path d="m30 1c.33 0 .67.01 1 .03v4.01c-.33-.03-.66-.04-1-.04s-.67.01-1 .04v-4.01c.33-.02.67-.03 1-.03z"/><path d="m17.979 5.979c.233-.233.481-.466.729-.686l2.835 2.836c-.255.212-.5.438-.735.679s-.467.48-.679.735l-2.836-2.835c.219-.248.453-.495.686-.729z"/><path d="m13 18c0-.33.01-.67.03-1h4.01c-.03.33-.04.66-.04 1s.01.67.04 1h-4.01c-.02-.33-.03-.67-.03-1z"/><path d="m17.979 30.021c-.233-.234-.466-.481-.686-.729l2.836-2.835c.212.255.438.5.679.735s.48.467.735.679l-2.835 2.836c-.248-.219-.495-.453-.729-.686z"/><path d="m30 35c-.33 0-.67-.01-1-.03v-4.01c.33.03.66.04 1 .04s.67-.01 1-.04v4.01c-.33.02-.67.03-1 .03z"/><path d="m42.021 30.021c-.233.233-.481.466-.729.686l-2.835-2.836c.255-.212.495-.438.735-.679s.467-.48.679-.735l2.836 2.835c-.219.248-.453.495-.686.729z"/></g></svg>