<svg id="Layer_1" enable-background="new 0 0 510 510" height="512" viewBox="0 0 510 510" width="512" xmlns="http://www.w3.org/2000/svg" xmlns:xlink="http://www.w3.org/1999/xlink"><linearGradient id="lg1"><stop offset="0" stop-color="#e4f2ff"/><stop offset="1" stop-color="#b2cbff"/></linearGradient><linearGradient id="SVGID_1_" gradientUnits="userSpaceOnUse" x1="420.881" x2="420.881" xlink:href="#lg1" y1="388.704" y2="435.379"/><linearGradient id="lg2"><stop offset="0" stop-color="#3f3ced" stop-opacity="0"/><stop offset=".2796" stop-color="#3c3de4" stop-opacity=".28"/><stop offset=".7305" stop-color="#3541cc" stop-opacity=".731"/><stop offset="1" stop-color="#2f43bb"/></linearGradient><linearGradient id="SVGID_2_" gradientUnits="userSpaceOnUse" x1="420.881" x2="420.881" xlink:href="#lg2" y1="389.38" y2="467.878"/><linearGradient id="lg3"><stop offset="0" stop-color="#fff" stop-opacity="0"/><stop offset="1" stop-color="#fff"/></linearGradient><linearGradient id="SVGID_4_" gradientUnits="userSpaceOnUse" x1="420.688" x2="402.076" xlink:href="#lg3" y1="401.956" y2="356.949"/><linearGradient id="SVGID_5_" gradientUnits="userSpaceOnUse" x1="420.881" x2="420.881" xlink:href="#lg1" y1="352.704" y2="399.379"/><linearGradient id="SVGID_6_" gradientUnits="userSpaceOnUse" x1="420.881" x2="420.881" xlink:href="#lg2" y1="353.381" y2="431.878"/><linearGradient id="SVGID_8_" gradientUnits="userSpaceOnUse" x1="420.688" x2="402.076" xlink:href="#lg3" y1="365.956" y2="320.949"/><linearGradient id="SVGID_9_" gradientUnits="userSpaceOnUse" x1="420.881" x2="420.881" xlink:href="#lg1" y1="316.704" y2="363.379"/><linearGradient id="SVGID_10_" gradientUnits="userSpaceOnUse" x1="420.881" x2="420.881" xlink:href="#lg2" y1="317.381" y2="395.878"/><linearGradient id="SVGID_12_" gradientUnits="userSpaceOnUse" x1="420.688" x2="402.076" xlink:href="#lg3" y1="329.956" y2="284.949"/><linearGradient id="SVGID_13_" gradientUnits="userSpaceOnUse" x1="420.881" x2="420.881" xlink:href="#lg1" y1="280.704" y2="327.379"/><linearGradient id="SVGID_14_" gradientUnits="userSpaceOnUse" x1="420.881" x2="420.881" xlink:href="#lg2" y1="281.381" y2="359.878"/><linearGradient id="SVGID_16_" gradientUnits="userSpaceOnUse" x1="420.688" x2="402.076" xlink:href="#lg3" y1="293.956" y2="248.95"/><linearGradient id="SVGID_17_" gradientUnits="userSpaceOnUse" x1="420.881" x2="420.881" xlink:href="#lg1" y1="244.704" y2="291.379"/><linearGradient id="SVGID_18_" gradientUnits="userSpaceOnUse" x1="420.881" x2="420.881" xlink:href="#lg2" y1="245.381" y2="323.878"/><linearGradient id="SVGID_20_" gradientUnits="userSpaceOnUse" x1="420.688" x2="402.076" xlink:href="#lg3" y1="257.956" y2="212.95"/><linearGradient id="SVGID_21_" gradientUnits="userSpaceOnUse" x1="420.881" x2="420.881" xlink:href="#lg1" y1="208.704" y2="255.38"/><linearGradient id="SVGID_22_" gradientUnits="userSpaceOnUse" x1="420.881" x2="420.881" xlink:href="#lg2" y1="209.381" y2="287.879"/><linearGradient id="SVGID_24_" gradientUnits="userSpaceOnUse" x1="420.688" x2="402.076" xlink:href="#lg3" y1="221.956" y2="176.95"/><linearGradient id="SVGID_25_" gradientUnits="userSpaceOnUse" x1="420.881" x2="420.881" xlink:href="#lg1" y1="172.705" y2="219.38"/><linearGradient id="SVGID_26_" gradientUnits="userSpaceOnUse" x1="420.881" x2="420.881" xlink:href="#lg2" y1="173.381" y2="251.879"/><linearGradient id="SVGID_28_" gradientUnits="userSpaceOnUse" x1="420.688" x2="402.076" xlink:href="#lg3" y1="185.957" y2="140.95"/><linearGradient id="SVGID_29_" gradientUnits="userSpaceOnUse" x1="420.881" x2="420.881" xlink:href="#lg1" y1="136.705" y2="183.38"/><linearGradient id="SVGID_30_" gradientUnits="userSpaceOnUse" x1="420.881" x2="420.881" xlink:href="#lg2" y1="137.382" y2="215.879"/><linearGradient id="SVGID_32_" gradientUnits="userSpaceOnUse" x1="420.688" x2="402.076" xlink:href="#lg3" y1="149.957" y2="104.95"/><linearGradient id="lg4"><stop offset="0" stop-color="#4ab272"/><stop offset=".3386" stop-color="#47b071"/><stop offset=".5502" stop-color="#3fa870"/><stop offset=".727" stop-color="#309b6d"/><stop offset=".8837" stop-color="#1c8869"/><stop offset="1" stop-color="#077565"/></linearGradient><radialGradient id="SVGID_33_" cx="198.573" cy="207.029" gradientUnits="userSpaceOnUse" r="337.577" xlink:href="#lg4"/><linearGradient id="lg5"><stop offset="0" stop-color="#005a01" stop-opacity="0"/><stop offset="1" stop-color="#005a01"/></linearGradient><linearGradient id="SVGID_34_" gradientUnits="userSpaceOnUse" x1="134.63" x2="123.816" xlink:href="#lg5" y1="363.216" y2="700.27"/><linearGradient id="SVGID_35_" gradientUnits="userSpaceOnUse" x1="233.072" x2="281.14" xlink:href="#lg5" y1="429.623" y2="613.08"/><linearGradient id="SVGID_36_" gradientUnits="userSpaceOnUse" x1="381.797" x2="364.173" xlink:href="#lg5" y1="426.02" y2="651.936"/><linearGradient id="lg6"><stop offset="0" stop-color="#91f27f" stop-opacity="0"/><stop offset="1" stop-color="#ffed82"/></linearGradient><linearGradient id="SVGID_37_" gradientUnits="userSpaceOnUse" x1="235.205" x2="9.29" xlink:href="#lg6" y1="294.097" y2="-109.666"/><linearGradient id="SVGID_38_" gradientUnits="userSpaceOnUse" x1="392.795" x2="106.518" xlink:href="#lg5" y1="372.285" y2="210.302"/><linearGradient id="lg7"><stop offset="0" stop-color="#ffc738"/><stop offset=".1876" stop-color="#fdbf3c"/><stop offset=".4837" stop-color="#f7a848"/><stop offset=".8493" stop-color="#ed835b"/><stop offset="1" stop-color="#e97264"/></linearGradient><linearGradient id="SVGID_39_" gradientUnits="userSpaceOnUse" x1="225.851" x2="382.661" xlink:href="#lg7" y1="245.548" y2="380.729"/><linearGradient id="SVGID_40_" gradientUnits="userSpaceOnUse" x1="240.563" x2="293.437" xlink:href="#lg4" y1="-15.177" y2="96.579"/><linearGradient id="SVGID_41_" gradientUnits="userSpaceOnUse" x1="257.93" x2="329.229" xlink:href="#lg5" y1="43.815" y2="154.369"/><linearGradient id="SVGID_42_" gradientUnits="userSpaceOnUse" x1="261.424" x2="265.029" xlink:href="#lg5" y1="3.731" y2="39.18"/><linearGradient id="SVGID_43_" gradientUnits="userSpaceOnUse" x1="245.783" x2="109.392" xlink:href="#lg6" y1="47.352" y2="44.949"/><linearGradient id="SVGID_44_" gradientUnits="userSpaceOnUse" x1="258.657" x2="258.657" xlink:href="#lg7" y1="87.663" y2="104.657"/><linearGradient id="SVGID_45_" gradientUnits="userSpaceOnUse" x1="245.471" x2="139.724" xlink:href="#lg5" y1="403.068" y2="394.256"/><linearGradient id="lg8"><stop offset="0" stop-color="#ffd945"/><stop offset=".3043" stop-color="#ffcd3e"/><stop offset=".8558" stop-color="#ffad2b"/><stop offset="1" stop-color="#ffa325"/></linearGradient><linearGradient id="SVGID_46_" gradientUnits="userSpaceOnUse" x1="89.119" x2="89.119" xlink:href="#lg8" y1="474.742" y2="521.417"/><linearGradient id="lg9"><stop offset="0" stop-color="#e87264" stop-opacity="0"/><stop offset="1" stop-color="#ff7044"/></linearGradient><linearGradient id="SVGID_47_" gradientUnits="userSpaceOnUse" x1="89.119" x2="89.119" xlink:href="#lg9" y1="475.419" y2="553.916"/><linearGradient id="lg10"><stop offset="0" stop-color="#ffd945" stop-opacity="0"/><stop offset="1" stop-color="#fbed21"/></linearGradient><linearGradient id="SVGID_49_" gradientUnits="userSpaceOnUse" x1="88.925" x2="70.314" xlink:href="#lg10" y1="487.994" y2="442.987"/><linearGradient id="SVGID_50_" gradientUnits="userSpaceOnUse" x1="89.119" x2="89.119" xlink:href="#lg8" y1="438.742" y2="485.417"/><linearGradient id="SVGID_51_" gradientUnits="userSpaceOnUse" x1="89.119" x2="89.119" xlink:href="#lg9" y1="439.419" y2="517.916"/><linearGradient id="SVGID_53_" gradientUnits="userSpaceOnUse" x1="88.925" x2="70.314" xlink:href="#lg10" y1="451.994" y2="406.988"/><linearGradient id="SVGID_54_" gradientUnits="userSpaceOnUse" x1="89.119" x2="89.119" xlink:href="#lg8" y1="402.742" y2="449.417"/><linearGradient id="SVGID_55_" gradientUnits="userSpaceOnUse" x1="89.119" x2="89.119" xlink:href="#lg9" y1="403.419" y2="481.916"/><linearGradient id="SVGID_57_" gradientUnits="userSpaceOnUse" x1="88.925" x2="70.314" xlink:href="#lg10" y1="415.994" y2="370.988"/><linearGradient id="SVGID_58_" gradientUnits="userSpaceOnUse" x1="89.119" x2="89.119" xlink:href="#lg8" y1="366.742" y2="413.418"/><linearGradient id="SVGID_59_" gradientUnits="userSpaceOnUse" x1="89.119" x2="89.119" xlink:href="#lg9" y1="367.419" y2="445.917"/><linearGradient id="SVGID_61_" gradientUnits="userSpaceOnUse" x1="88.925" x2="70.314" xlink:href="#lg10" y1="379.994" y2="334.988"/><linearGradient id="SVGID_62_" gradientUnits="userSpaceOnUse" x1="89.119" x2="89.119" xlink:href="#lg8" y1="330.743" y2="377.418"/><linearGradient id="SVGID_63_" gradientUnits="userSpaceOnUse" x1="89.119" x2="89.119" xlink:href="#lg9" y1="331.419" y2="409.917"/><linearGradient id="SVGID_65_" gradientUnits="userSpaceOnUse" x1="88.925" x2="70.314" xlink:href="#lg10" y1="343.995" y2="298.988"/><linearGradient id="SVGID_66_" gradientUnits="userSpaceOnUse" x1="89.119" x2="89.119" xlink:href="#lg8" y1="294.743" y2="341.418"/><linearGradient id="SVGID_67_" gradientUnits="userSpaceOnUse" x1="89.119" x2="89.119" xlink:href="#lg9" y1="295.419" y2="373.917"/><linearGradient id="SVGID_69_" gradientUnits="userSpaceOnUse" x1="88.925" x2="70.314" xlink:href="#lg10" y1="307.995" y2="262.988"/><linearGradient id="SVGID_70_" gradientUnits="userSpaceOnUse" x1="383.464" x2="383.464" xlink:href="#lg8" y1="474.742" y2="521.417"/><linearGradient id="SVGID_71_" gradientUnits="userSpaceOnUse" x1="383.464" x2="383.464" xlink:href="#lg9" y1="475.419" y2="553.916"/><linearGradient id="SVGID_73_" gradientUnits="userSpaceOnUse" x1="383.27" x2="364.659" xlink:href="#lg10" y1="487.994" y2="442.987"/><linearGradient id="SVGID_74_" gradientUnits="userSpaceOnUse" x1="383.464" x2="383.464" xlink:href="#lg8" y1="438.742" y2="485.417"/><linearGradient id="SVGID_75_" gradientUnits="userSpaceOnUse" x1="383.464" x2="383.464" xlink:href="#lg9" y1="439.419" y2="517.916"/><linearGradient id="SVGID_77_" gradientUnits="userSpaceOnUse" x1="383.27" x2="364.659" xlink:href="#lg10" y1="451.994" y2="406.988"/><linearGradient id="SVGID_78_" gradientTransform="matrix(1 .002 -.002 1 .612 1.309)" gradientUnits="userSpaceOnUse" x1="36.078" x2="83.442" xlink:href="#lg8" y1="184.086" y2="247.239"/><linearGradient id="SVGID_79_" gradientTransform="matrix(1 .002 -.002 1 .612 1.309)" gradientUnits="userSpaceOnUse" x1="112.252" x2="145.746" xlink:href="#lg8" y1="54.853" y2="99.512"/><linearGradient id="SVGID_80_" gradientTransform="matrix(1 .002 -.002 1 .612 1.309)" gradientUnits="userSpaceOnUse" x1="400.665" x2="434.16" xlink:href="#lg8" y1="78.959" y2="123.618"/><path d="m499.37 423.962h-156.978c-3 0-5.433-2.432-5.433-5.433v-25.134c0-3.001 2.432-5.433 5.433-5.433h156.978c3 0 5.433 2.432 5.433 5.433v25.134c0 3-2.432 5.433-5.433 5.433z" fill="url(#SVGID_1_)"/><path d="m479.443 423.962h-117.124c-2.605 0-4.718-2.112-4.718-4.718v-26.564c0-2.606 2.112-4.718 4.718-4.718h117.124c2.605 0 4.718 2.112 4.718 4.718v26.564c0 2.605-2.112 4.718-4.718 4.718z" fill="url(#SVGID_2_)"/><path d="m441.047 423.962h-40.332c-1.571 0-2.845-1.274-2.845-2.845v-30.31c0-1.571 1.274-2.845 2.845-2.845h40.332c1.571 0 2.845 1.274 2.845 2.845v30.31c0 1.571-1.274 2.845-2.845 2.845z" fill="url(#SVGID_2_)"/><path d="m347.13 392.342c-3 0-5.433 2.432-5.433 5.433v25.134c0 .349.036.689.099 1.019.196.021.395.034.597.034h156.977c3 0 5.433-2.432 5.433-5.433v-25.134c0-.349-.036-.689-.099-1.019-.196-.021-.395-.034-.597-.034z" fill="url(#SVGID_4_)"/><path d="m499.37 387.962h-156.978c-3 0-5.433-2.432-5.433-5.433v-25.134c0-3.001 2.432-5.433 5.433-5.433h156.978c3 0 5.433 2.432 5.433 5.433v25.134c0 3-2.432 5.433-5.433 5.433z" fill="url(#SVGID_5_)"/><path d="m479.443 387.962h-117.124c-2.605 0-4.718-2.112-4.718-4.718v-26.564c0-2.605 2.112-4.718 4.718-4.718h117.124c2.605 0 4.718 2.112 4.718 4.718v26.565c0 2.605-2.112 4.717-4.718 4.717z" fill="url(#SVGID_6_)"/><path d="m441.047 387.962h-40.332c-1.571 0-2.845-1.274-2.845-2.845v-30.31c0-1.571 1.274-2.845 2.845-2.845h40.332c1.571 0 2.845 1.274 2.845 2.845v30.31c0 1.571-1.274 2.845-2.845 2.845z" fill="url(#SVGID_6_)"/><path d="m347.13 356.342c-3 0-5.433 2.432-5.433 5.433v25.134c0 .349.036.688.099 1.019.196.022.395.034.597.034h156.977c3 0 5.433-2.432 5.433-5.433v-25.134c0-.349-.036-.688-.099-1.019-.196-.022-.395-.034-.597-.034z" fill="url(#SVGID_8_)"/><path d="m499.37 351.962h-156.978c-3 0-5.433-2.432-5.433-5.433v-25.134c0-3.001 2.432-5.433 5.433-5.433h156.978c3 0 5.433 2.432 5.433 5.433v25.134c0 3.001-2.432 5.433-5.433 5.433z" fill="url(#SVGID_9_)"/><path d="m479.443 351.962h-117.124c-2.605 0-4.718-2.112-4.718-4.718v-26.564c0-2.605 2.112-4.718 4.718-4.718h117.124c2.605 0 4.718 2.112 4.718 4.718v26.564c0 2.606-2.112 4.718-4.718 4.718z" fill="url(#SVGID_10_)"/><path d="m441.047 351.962h-40.332c-1.571 0-2.845-1.274-2.845-2.845v-30.31c0-1.571 1.274-2.845 2.845-2.845h40.332c1.571 0 2.845 1.274 2.845 2.845v30.31c0 1.571-1.274 2.845-2.845 2.845z" fill="url(#SVGID_10_)"/><path d="m347.13 320.342c-3 0-5.433 2.432-5.433 5.433v25.134c0 .349.036.689.099 1.019.196.021.395.034.597.034h156.977c3 0 5.433-2.432 5.433-5.433v-25.134c0-.349-.036-.689-.099-1.019-.196-.021-.395-.034-.597-.034z" fill="url(#SVGID_12_)"/><path d="m499.37 315.962h-156.978c-3 0-5.433-2.432-5.433-5.433v-25.134c0-3.001 2.432-5.433 5.433-5.433h156.978c3 0 5.433 2.432 5.433 5.433v25.134c0 3.001-2.432 5.433-5.433 5.433z" fill="url(#SVGID_13_)"/><path d="m479.443 315.962h-117.124c-2.605 0-4.718-2.112-4.718-4.718v-26.564c0-2.605 2.112-4.718 4.718-4.718h117.124c2.605 0 4.718 2.112 4.718 4.718v26.565c0 2.605-2.112 4.717-4.718 4.717z" fill="url(#SVGID_14_)"/><path d="m441.047 315.962h-40.332c-1.571 0-2.845-1.274-2.845-2.845v-30.31c0-1.571 1.274-2.845 2.845-2.845h40.332c1.571 0 2.845 1.274 2.845 2.845v30.31c0 1.571-1.274 2.845-2.845 2.845z" fill="url(#SVGID_14_)"/><path d="m347.13 284.342c-3 0-5.433 2.432-5.433 5.433v25.134c0 .349.036.689.099 1.019.196.022.395.034.597.034h156.977c3 0 5.433-2.432 5.433-5.433v-25.134c0-.349-.036-.688-.099-1.019-.196-.022-.395-.034-.597-.034z" fill="url(#SVGID_16_)"/><path d="m499.37 279.962h-156.978c-3 0-5.433-2.432-5.433-5.433v-25.134c0-3.001 2.432-5.433 5.433-5.433h156.978c3 0 5.433 2.432 5.433 5.433v25.134c0 3.001-2.432 5.433-5.433 5.433z" fill="url(#SVGID_17_)"/><path d="m479.443 279.962h-117.124c-2.605 0-4.718-2.112-4.718-4.718v-26.564c0-2.606 2.112-4.718 4.718-4.718h117.124c2.605 0 4.718 2.112 4.718 4.718v26.564c0 2.606-2.112 4.718-4.718 4.718z" fill="url(#SVGID_18_)"/><path d="m441.047 279.962h-40.332c-1.571 0-2.845-1.274-2.845-2.845v-30.31c0-1.571 1.274-2.845 2.845-2.845h40.332c1.571 0 2.845 1.274 2.845 2.845v30.31c0 1.572-1.274 2.845-2.845 2.845z" fill="url(#SVGID_18_)"/><path d="m347.13 248.342c-3 0-5.433 2.432-5.433 5.433v25.134c0 .349.036.689.099 1.019.196.021.395.034.597.034h156.977c3 0 5.433-2.432 5.433-5.433v-25.134c0-.349-.036-.689-.099-1.019-.196-.021-.395-.034-.597-.034z" fill="url(#SVGID_20_)"/><path d="m499.37 243.962h-156.978c-3 0-5.433-2.432-5.433-5.433v-25.134c0-3.001 2.432-5.433 5.433-5.433h156.978c3 0 5.433 2.432 5.433 5.433v25.134c0 3.001-2.432 5.433-5.433 5.433z" fill="url(#SVGID_21_)"/><path d="m479.443 243.962h-117.124c-2.605 0-4.718-2.112-4.718-4.718v-26.564c0-2.605 2.112-4.718 4.718-4.718h117.124c2.605 0 4.718 2.112 4.718 4.718v26.564c0 2.606-2.112 4.718-4.718 4.718z" fill="url(#SVGID_22_)"/><path d="m441.047 243.962h-40.332c-1.571 0-2.845-1.274-2.845-2.845v-30.31c0-1.571 1.274-2.845 2.845-2.845h40.332c1.571 0 2.845 1.274 2.845 2.845v30.31c0 1.572-1.274 2.845-2.845 2.845z" fill="url(#SVGID_22_)"/><path d="m347.13 212.342c-3 0-5.433 2.432-5.433 5.433v25.134c0 .349.036.688.099 1.019.196.021.395.034.597.034h156.977c3 0 5.433-2.432 5.433-5.433v-25.134c0-.349-.036-.688-.099-1.019-.196-.021-.395-.034-.597-.034z" fill="url(#SVGID_24_)"/><path d="m499.37 207.963h-156.978c-3 0-5.433-2.432-5.433-5.433v-25.134c0-3.001 2.432-5.433 5.433-5.433h156.978c3 0 5.433 2.432 5.433 5.433v25.134c0 3-2.432 5.433-5.433 5.433z" fill="url(#SVGID_25_)"/><path d="m479.443 207.963h-117.124c-2.605 0-4.718-2.112-4.718-4.718v-26.565c0-2.605 2.112-4.718 4.718-4.718h117.124c2.605 0 4.718 2.112 4.718 4.718v26.564c0 2.606-2.112 4.719-4.718 4.719z" fill="url(#SVGID_26_)"/><path d="m441.047 207.963h-40.332c-1.571 0-2.845-1.274-2.845-2.845v-30.31c0-1.571 1.274-2.845 2.845-2.845h40.332c1.571 0 2.845 1.274 2.845 2.845v30.31c0 1.571-1.274 2.845-2.845 2.845z" fill="url(#SVGID_26_)"/><path d="m347.13 176.342c-3 0-5.433 2.432-5.433 5.433v25.134c0 .349.036.689.099 1.019.196.021.395.034.597.034h156.977c3 0 5.433-2.432 5.433-5.433v-25.134c0-.349-.036-.689-.099-1.019-.196-.021-.395-.034-.597-.034z" fill="url(#SVGID_28_)"/><path d="m499.37 171.963h-156.978c-3 0-5.433-2.432-5.433-5.433v-25.134c0-3.001 2.432-5.433 5.433-5.433h156.978c3 0 5.433 2.432 5.433 5.433v25.134c0 3-2.432 5.433-5.433 5.433z" fill="url(#SVGID_29_)"/><path d="m479.443 171.963h-117.124c-2.605 0-4.718-2.112-4.718-4.718v-26.564c0-2.605 2.112-4.718 4.718-4.718h117.124c2.605 0 4.718 2.112 4.718 4.718v26.564c0 2.606-2.112 4.718-4.718 4.718z" fill="url(#SVGID_30_)"/><path d="m441.047 171.963h-40.332c-1.571 0-2.845-1.274-2.845-2.845v-30.31c0-1.571 1.274-2.845 2.845-2.845h40.332c1.571 0 2.845 1.274 2.845 2.845v30.31c0 1.571-1.274 2.845-2.845 2.845z" fill="url(#SVGID_30_)"/><path d="m347.13 140.343c-3 0-5.433 2.432-5.433 5.433v25.134c0 .349.036.688.099 1.019.196.021.395.034.597.034h156.977c3 0 5.433-2.432 5.433-5.433v-25.134c0-.349-.036-.689-.099-1.019-.196-.021-.395-.034-.597-.034z" fill="url(#SVGID_32_)"/><path d="m417.693 267.673-14.426-75.654c-10.76-56.43-60.101-97.252-117.548-97.252h-54.124c-57.447 0-106.788 40.822-117.548 97.252l-8.179 42.893c-7.86 41.22-20.424 81.546-39.214 119.067-5.494 10.97-8.379 23.472-7.838 36.698 1.563 38.265 35.24 71.191 73.53 71.94.281.005.561.009.841.012 17.372.15 34.098 6.92 46.281 19.305 13.616 13.842 32.556 22.427 53.509 22.427 25.429 0 47.899-12.642 61.483-31.981 4.373-6.226 11.545-9.764 19.154-9.749h.132c3.269 0 6.481-.242 9.62-.708 5.92-.877 11.909.634 16.796 4.09 13.217 9.349 29.583 14.539 47.201 13.647 37.704-1.908 68.46-32.09 71.022-69.755.922-13.552-1.759-26.397-7.177-37.679-15.902-33.114-26.635-68.47-33.515-104.553z" fill="url(#SVGID_33_)"/><circle cx="133.85" cy="387.531" fill="url(#SVGID_34_)" r="75.099"/><circle cx="232.977" cy="429.261" fill="url(#SVGID_35_)" r="75.099"/><circle cx="383.464" cy="404.66" fill="url(#SVGID_36_)" r="75.099"/><path d="m458.384 409.905c.922-13.552-1.759-26.397-7.177-37.679-15.902-33.114-26.634-68.47-33.514-104.554l-14.426-75.654c-3.904-20.476-12.908-38.879-25.515-54.041-20.866-17.277-47.576-27.494-76.316-27.494h-54.125c-57.446 0-106.788 40.822-117.548 97.252l-8.179 42.893c-7.86 41.22-20.424 81.546-39.214 119.066-5.494 10.97-8.379 23.472-7.839 36.698.615 15.055 6.216 29.272 15.098 41.039 12.223 9.206 27.083 14.878 42.716 15.184.281.005.561.009.841.012 17.372.15 34.099 6.92 46.282 19.305 13.616 13.842 32.556 22.427 53.509 22.427 25.429 0 47.899-12.642 61.483-31.981 4.373-6.226 11.545-9.764 19.154-9.749h.132c3.269 0 6.481-.242 9.62-.708 5.92-.877 11.909.634 16.796 4.09 13.217 9.349 29.583 14.539 47.201 13.647 37.703-1.906 68.46-32.088 71.021-69.753z" fill="url(#SVGID_37_)"/><path d="m302.289 183.171c-5.437-1.682-10.603-2.893-15.496-3.64-2.36-.361-4.744-.653-7.147-.883-.02-.011-.039-.022-.058-.033l-11.009-11.402c-2.174-1.419-4.532-2.133-7.068-2.133-2.902 0-5.348.676-7.34 2.018-1.996 1.346-2.99 2.944-2.99 4.787v7.059c-15.767 2.217-28.772 8.041-39.009 17.466-10.242 9.425-15.359 22.359-15.359 38.806 0 6.707 1.177 12.824 3.533 18.35 2.354 5.53 5.073 10.058 8.157 13.592l42.679 42.718v25.379c-7.068-1.266-14.773-4.847-23.106-10.738-8.339-5.887-14.23-8.835-17.671-8.835-4.893 0-9.199 2.54-12.913 7.612-3.716 5.076-5.572 10.152-5.572 15.224 0 6.61 3.243 12.716 9.718 18.321l106.426 106.426c1.8-.421 3.662-.638 5.552-.634h.132c3.269 0 6.481-.242 9.62-.708 5.92-.877 11.909.634 16.796 4.09 13.217 9.349 29.583 14.539 47.201 13.647 37.704-1.908 68.46-32.09 71.022-69.755.922-13.552-1.759-26.397-7.177-37.679-11.067-23.046-19.624-47.18-26.128-71.888l-109.609-109.606c-3.356-3.36-7.747-5.879-13.184-7.561z" fill="url(#SVGID_38_)"/><path d="m321.998 294.208c-2.27-5.798-4.987-10.603-8.156-14.408-3.174-3.806-7.387-7.429-12.642-10.874-5.258-3.441-9.968-6.069-14.136-7.883-4.17-1.81-9.242-3.895-15.222-6.253v-39.69c6.523.544 12.819 2.357 18.893 5.437 6.07 3.084 10.373 4.622 12.913 4.622 5.254 0 9.379-2.579 12.369-7.735 2.99-5.157 4.485-10.135 4.485-14.926 0-4.481-1.677-8.401-5.029-11.766-3.356-3.36-7.747-5.878-13.184-7.561-5.437-1.682-10.603-2.893-15.496-3.64-4.893-.748-9.88-1.215-14.951-1.402v-6.274c0-1.674-1.088-3.22-3.263-4.643-2.174-1.419-4.532-2.132-7.068-2.132-2.902 0-5.348.676-7.34 2.018-1.996 1.346-2.99 2.944-2.99 4.787v7.059c-15.767 2.217-28.772 8.041-39.009 17.466-10.242 9.425-15.359 22.359-15.359 38.806 0 6.707 1.176 12.824 3.533 18.35 2.354 5.53 5.073 10.058 8.157 13.592 3.079 3.534 7.429 6.979 13.048 10.33 5.615 3.356 10.331 5.845 14.136 7.475 3.806 1.631 8.971 3.717 15.495 6.253v44.039c-7.068-1.266-14.773-4.847-23.106-10.738-8.339-5.887-14.23-8.835-17.671-8.835-4.893 0-9.199 2.54-12.913 7.612-3.716 5.076-5.572 10.152-5.572 15.224 0 8.882 5.845 16.854 17.534 23.923 11.69 7.068 25.596 10.874 41.728 11.417v6.796c0 1.992.995 3.712 2.99 5.165 1.992 1.448 4.438 2.175 7.34 2.175 2.535 0 4.894-.773 7.068-2.311 2.176-1.542 3.263-3.22 3.263-5.029v-7.884c16.311-2.718 29.312-9.149 39.009-19.301 9.694-10.148 14.544-23.468 14.544-39.962-.001-7.067-1.134-13.498-3.398-19.299zm-68.098-45.943c-11.6-4.893-17.399-10.602-17.399-17.126 0-7.79 5.798-12.866 17.399-15.224zm15.223 86.719v-36.427c11.052 5.258 16.583 11.689 16.583 19.301 0 8.881-5.531 14.59-16.583 17.126z" fill="url(#SVGID_39_)"/><path d="m295.542 94.766h-73.771l-33.562-64.34c-4.955-9.498.702-21.08 11.239-23.012l21.979-4.03c24.615-4.513 49.845-4.513 74.459 0l21.979 4.03c10.537 1.932 16.194 13.513 11.239 23.012z" fill="url(#SVGID_40_)"/><path d="m270.924 94.766h-24.535l-11.162-64.34c-1.648-9.498.234-21.08 3.738-23.012l7.31-4.03c8.186-4.513 16.577-4.513 24.764 0l7.31 4.03c3.505 1.932 5.386 13.513 3.738 23.012z" fill="url(#SVGID_41_)"/><path d="m327.996 13.889c1.438 2.046.714 4.897-1.517 6.028-10.467 5.323-22.844 5.323-33.31 0l-9.253-4.698c-10.466-5.323-22.844-5.323-33.31 0l-9.241 4.698c-10.467 5.323-22.844 5.323-33.311 0l-9.679-4.923c-3.391-1.725-2.759-6.854.98-7.556.032-.006.063-.012.095-.018l21.979-4.038c24.61-4.506 49.845-4.506 74.456 0l21.979 4.038c4.34.791 7.847 3.219 10.132 6.469z" fill="url(#SVGID_42_)"/><path d="m329.318 22.907c.494-1.199.852-2.429 1.115-3.669-1.445-5.774-6.074-10.633-12.567-11.824l-21.979-4.03c-24.615-4.513-49.845-4.513-74.459 0l-16.393 3.006c-2.054 4.921-2.316 11.025-.052 16.517l29.617 71.859h60.943l19.812-37.981z" fill="url(#SVGID_43_)"/><path d="m258.657 101.979c-15.991 0-31.127-1.033-43.531-2.942-4.085-.629-6.825-4.523-6.001-8.573.766-3.766 4.344-6.273 8.143-5.691 11.65 1.786 26.305 2.786 41.389 2.786 15.083 0 29.738-1 41.389-2.786 3.799-.582 7.377 1.924 8.143 5.691.824 4.05-1.916 7.945-6.001 8.573-12.404 1.909-27.54 2.942-43.531 2.942z" fill="url(#SVGID_44_)"/><path d="m172.869 298.169c-.573-2.387-2.699-4.168-5.261-4.168h-19.927-38.396-18.348c-6.584 20.562-14.602 40.644-24.284 59.977-5.494 10.97-8.379 23.472-7.839 36.698 1.563 38.265 35.241 71.191 73.531 71.94.281.005.561.009.841.012 17.372.15 34.099 6.92 46.282 19.305 13.616 13.842 32.556 22.427 53.509 22.427 25.429 0 47.899-12.642 61.483-31.981 4.373-6.226 11.545-9.764 19.154-9.749h.132c3.269 0 6.481-.242 9.62-.708 5.92-.877 11.909.634 16.796 4.09.561.397 1.135.776 1.708 1.157z" fill="url(#SVGID_45_)"/><path d="m167.608 510h-156.978c-3 0-5.433-2.432-5.433-5.433v-25.134c0-3.001 2.432-5.433 5.433-5.433h156.978c3 0 5.433 2.432 5.433 5.433v25.134c0 3.001-2.433 5.433-5.433 5.433z" fill="url(#SVGID_46_)"/><path d="m147.681 510h-117.124c-2.606 0-4.718-2.112-4.718-4.718v-26.564c0-2.605 2.112-4.718 4.718-4.718h117.124c2.605 0 4.718 2.112 4.718 4.718v26.564c0 2.606-2.112 4.718-4.718 4.718z" fill="url(#SVGID_47_)"/><path d="m109.285 510h-40.332c-1.571 0-2.845-1.274-2.845-2.845v-30.31c0-1.571 1.274-2.845 2.845-2.845h40.332c1.571 0 2.845 1.274 2.845 2.845v30.31c0 1.571-1.274 2.845-2.845 2.845z" fill="url(#SVGID_47_)"/><path d="m15.367 478.38c-3.001 0-5.433 2.432-5.433 5.433v25.134c0 .349.036.689.099 1.019.196.021.395.034.597.034h156.978c3.001 0 5.433-2.432 5.433-5.433v-25.134c0-.349-.036-.689-.099-1.019-.196-.021-.395-.034-.597-.034z" fill="url(#SVGID_49_)"/><path d="m167.608 474h-156.978c-3 0-5.433-2.432-5.433-5.433v-25.134c0-3.001 2.432-5.433 5.433-5.433h156.978c3 0 5.433 2.432 5.433 5.433v25.134c0 3.001-2.433 5.433-5.433 5.433z" fill="url(#SVGID_50_)"/><path d="m147.681 474h-117.124c-2.606 0-4.718-2.112-4.718-4.718v-26.565c0-2.605 2.112-4.718 4.718-4.718h117.124c2.605 0 4.718 2.112 4.718 4.718v26.565c0 2.606-2.112 4.718-4.718 4.718z" fill="url(#SVGID_51_)"/><path d="m109.285 474h-40.332c-1.571 0-2.845-1.274-2.845-2.845v-30.31c0-1.571 1.274-2.845 2.845-2.845h40.332c1.571 0 2.845 1.274 2.845 2.845v30.31c0 1.571-1.274 2.845-2.845 2.845z" fill="url(#SVGID_51_)"/><path d="m15.367 442.38c-3.001 0-5.433 2.432-5.433 5.433v25.134c0 .349.036.688.099 1.019.196.022.395.034.597.034h156.978c3.001 0 5.433-2.432 5.433-5.433v-25.134c0-.349-.036-.689-.099-1.019-.196-.022-.395-.034-.597-.034z" fill="url(#SVGID_53_)"/><path d="m167.608 438h-156.978c-3 0-5.433-2.432-5.433-5.433v-25.134c0-3 2.432-5.433 5.433-5.433h156.978c3 0 5.433 2.432 5.433 5.433v25.134c0 3.001-2.433 5.433-5.433 5.433z" fill="url(#SVGID_54_)"/><path d="m147.681 438h-117.124c-2.606 0-4.718-2.112-4.718-4.718v-26.564c0-2.606 2.112-4.718 4.718-4.718h117.124c2.605 0 4.718 2.112 4.718 4.718v26.564c0 2.606-2.112 4.718-4.718 4.718z" fill="url(#SVGID_55_)"/><path d="m109.285 438h-40.332c-1.571 0-2.845-1.274-2.845-2.845v-30.31c0-1.571 1.274-2.845 2.845-2.845h40.332c1.571 0 2.845 1.274 2.845 2.845v30.31c0 1.572-1.274 2.845-2.845 2.845z" fill="url(#SVGID_55_)"/><path d="m15.367 406.38c-3.001 0-5.433 2.432-5.433 5.433v25.134c0 .349.036.689.099 1.019.196.021.395.034.597.034h156.978c3.001 0 5.433-2.432 5.433-5.433v-25.134c0-.349-.036-.688-.099-1.019-.196-.021-.395-.034-.597-.034z" fill="url(#SVGID_57_)"/><path d="m167.608 402h-156.978c-3 0-5.433-2.432-5.433-5.433v-25.134c0-3.001 2.432-5.433 5.433-5.433h156.978c3 0 5.433 2.432 5.433 5.433v25.134c0 3.001-2.433 5.433-5.433 5.433z" fill="url(#SVGID_58_)"/><path d="m147.681 402h-117.124c-2.606 0-4.718-2.112-4.718-4.718v-26.565c0-2.605 2.112-4.718 4.718-4.718h117.124c2.605 0 4.718 2.112 4.718 4.718v26.565c0 2.606-2.112 4.718-4.718 4.718z" fill="url(#SVGID_59_)"/><path d="m109.285 402h-40.332c-1.571 0-2.845-1.274-2.845-2.845v-30.31c0-1.571 1.274-2.845 2.845-2.845h40.332c1.571 0 2.845 1.274 2.845 2.845v30.31c0 1.572-1.274 2.845-2.845 2.845z" fill="url(#SVGID_59_)"/><path d="m15.367 370.38c-3.001 0-5.433 2.432-5.433 5.433v25.134c0 .349.036.688.099 1.019.196.022.395.034.597.034h156.978c3.001 0 5.433-2.432 5.433-5.433v-25.134c0-.349-.036-.688-.099-1.019-.196-.022-.395-.034-.597-.034z" fill="url(#SVGID_61_)"/><path d="m167.608 366.001h-156.978c-3 0-5.433-2.432-5.433-5.433v-25.134c0-3 2.432-5.433 5.433-5.433h156.978c3 0 5.433 2.432 5.433 5.433v25.134c0 3-2.433 5.433-5.433 5.433z" fill="url(#SVGID_62_)"/><path d="m147.681 366.001h-117.124c-2.606 0-4.718-2.112-4.718-4.718v-26.564c0-2.605 2.112-4.718 4.718-4.718h117.124c2.605 0 4.718 2.112 4.718 4.718v26.564c0 2.605-2.112 4.718-4.718 4.718z" fill="url(#SVGID_63_)"/><path d="m109.285 366.001h-40.332c-1.571 0-2.845-1.274-2.845-2.845v-30.31c0-1.571 1.274-2.845 2.845-2.845h40.332c1.571 0 2.845 1.274 2.845 2.845v30.31c0 1.571-1.274 2.845-2.845 2.845z" fill="url(#SVGID_63_)"/><path d="m15.367 334.38c-3.001 0-5.433 2.432-5.433 5.433v25.134c0 .349.036.689.099 1.019.196.021.395.034.597.034h156.978c3.001 0 5.433-2.432 5.433-5.433v-25.134c0-.349-.036-.688-.099-1.019-.196-.021-.395-.034-.597-.034z" fill="url(#SVGID_65_)"/><path d="m167.608 330.001h-156.978c-3 0-5.433-2.432-5.433-5.433v-25.134c0-3.001 2.432-5.433 5.433-5.433h156.978c3 0 5.433 2.432 5.433 5.433v25.134c0 3-2.433 5.433-5.433 5.433z" fill="url(#SVGID_66_)"/><path d="m147.681 330.001h-117.124c-2.606 0-4.718-2.112-4.718-4.718v-26.565c0-2.605 2.112-4.718 4.718-4.718h117.124c2.605 0 4.718 2.112 4.718 4.718v26.565c0 2.606-2.112 4.718-4.718 4.718z" fill="url(#SVGID_67_)"/><path d="m109.285 330.001h-40.332c-1.571 0-2.845-1.274-2.845-2.845v-30.31c0-1.571 1.274-2.845 2.845-2.845h40.332c1.571 0 2.845 1.274 2.845 2.845v30.31c0 1.571-1.274 2.845-2.845 2.845z" fill="url(#SVGID_67_)"/><path d="m15.367 298.381c-3.001 0-5.433 2.432-5.433 5.433v25.134c0 .349.036.688.099 1.019.196.021.395.034.597.034h156.978c3.001 0 5.433-2.432 5.433-5.433v-25.134c0-.349-.036-.688-.099-1.019-.196-.021-.395-.034-.597-.034z" fill="url(#SVGID_69_)"/><path d="m461.953 510h-156.978c-3.001 0-5.433-2.432-5.433-5.433v-25.134c0-3.001 2.432-5.433 5.433-5.433h156.978c3 0 5.433 2.432 5.433 5.433v25.134c0 3.001-2.433 5.433-5.433 5.433z" fill="url(#SVGID_70_)"/><path d="m442.026 510h-117.124c-2.605 0-4.718-2.112-4.718-4.718v-26.564c0-2.605 2.112-4.718 4.718-4.718h117.124c2.605 0 4.718 2.112 4.718 4.718v26.564c0 2.606-2.113 4.718-4.718 4.718z" fill="url(#SVGID_71_)"/><path d="m403.63 510h-40.332c-1.571 0-2.845-1.274-2.845-2.845v-30.31c0-1.571 1.274-2.845 2.845-2.845h40.332c1.571 0 2.845 1.274 2.845 2.845v30.31c0 1.571-1.274 2.845-2.845 2.845z" fill="url(#SVGID_71_)"/><path d="m309.712 478.38c-3 0-5.433 2.432-5.433 5.433v25.134c0 .349.036.689.099 1.019.196.021.395.034.597.034h156.978c3 0 5.433-2.432 5.433-5.433v-25.134c0-.349-.036-.689-.099-1.019-.196-.021-.395-.034-.597-.034z" fill="url(#SVGID_73_)"/><path d="m461.953 474h-156.978c-3.001 0-5.433-2.432-5.433-5.433v-25.134c0-3.001 2.432-5.433 5.433-5.433h156.978c3 0 5.433 2.432 5.433 5.433v25.134c0 3.001-2.433 5.433-5.433 5.433z" fill="url(#SVGID_74_)"/><path d="m442.026 474h-117.124c-2.605 0-4.718-2.112-4.718-4.718v-26.565c0-2.605 2.112-4.718 4.718-4.718h117.124c2.605 0 4.718 2.112 4.718 4.718v26.565c0 2.606-2.113 4.718-4.718 4.718z" fill="url(#SVGID_75_)"/><path d="m403.63 474h-40.332c-1.571 0-2.845-1.274-2.845-2.845v-30.31c0-1.571 1.274-2.845 2.845-2.845h40.332c1.571 0 2.845 1.274 2.845 2.845v30.31c0 1.571-1.274 2.845-2.845 2.845z" fill="url(#SVGID_75_)"/><path d="m309.712 442.38c-3 0-5.433 2.432-5.433 5.433v25.134c0 .349.036.688.099 1.019.196.022.395.034.597.034h156.978c3 0 5.433-2.432 5.433-5.433v-25.134c0-.349-.036-.689-.099-1.019-.196-.022-.395-.034-.597-.034z" fill="url(#SVGID_77_)"/><path d="m93.055 209.679c-15.014 9.784-27.824 22.671-37.525 37.748-2.182 3.39-7.216 3.381-9.385-.017-9.646-15.111-22.409-28.045-37.387-37.884-3.325-2.184-3.316-7.149.017-9.321 15.014-9.784 27.824-22.671 37.525-37.747 2.181-3.39 7.216-3.381 9.385.017 9.646 15.111 22.409 28.045 37.388 37.884 3.324 2.183 3.315 7.149-.018 9.32z" fill="url(#SVGID_78_)"/><path d="m152.859 73.491c-10.617 6.919-19.676 16.032-26.536 26.694-1.543 2.397-5.103 2.391-6.637-.012-6.821-10.686-15.847-19.832-26.439-26.79-2.351-1.544-2.345-5.056.012-6.592 10.617-6.919 19.676-16.032 26.536-26.694 1.543-2.397 5.103-2.391 6.637.012 6.821 10.686 15.847 19.832 26.439 26.79 2.351 1.545 2.345 5.056-.012 6.592z" fill="url(#SVGID_79_)"/><path d="m441.229 98.116c-10.617 6.919-19.676 16.032-26.536 26.694-1.543 2.397-5.103 2.391-6.637-.012-6.821-10.686-15.847-19.832-26.439-26.79-2.351-1.544-2.345-5.056.012-6.592 10.617-6.919 19.676-16.032 26.536-26.694 1.543-2.397 5.103-2.391 6.637.012 6.822 10.686 15.847 19.832 26.439 26.79 2.351 1.545 2.345 5.056-.012 6.592z" fill="url(#SVGID_80_)"/></svg>