<svg id="Layer_1" enable-background="new 0 0 512 512" height="512" viewBox="0 0 512 512" width="512" xmlns="http://www.w3.org/2000/svg"><g clip-rule="evenodd" fill-rule="evenodd"><path d="m277.68 31.724v195.02h213.684c3.002 0 5.585-1.179 7.553-3.446 1.966-2.266 2.773-4.989 2.351-7.96-15.07-106.202-103.998-188.634-213.133-193.606-2.831-.129-5.313.803-7.363 2.761-2.049 1.957-3.092 4.396-3.092 7.231z" fill="#9acd68"/><path d="m298.287 267.958 131.864 131.863c2.004 2.004 4.467 2.991 7.301 2.926 2.834-.066 5.249-1.165 7.159-3.259 29.817-32.697 50.155-74.188 56.672-120.126.422-2.971-.382-5.694-2.349-7.96s-4.55-3.444-7.551-3.444z" fill="#eb5463"/><path d="m388.604 431.355c-40.14 36.604-93.533 58.925-152.139 58.925-124.738 0-225.857-101.119-225.857-225.857 0-121.233 95.517-220.157 215.401-225.619 2.831-.129 5.313.804 7.363 2.762s3.093 4.397 3.093 7.232v215.626l152.471 152.471c2.004 2.004 2.992 4.468 2.926 7.301-.065 2.834-1.164 5.249-3.258 7.159z" fill="#fdcd56"/><path d="m110.145 347.204c-4.013-3.775-4.205-10.089-.43-14.102s10.089-4.205 14.102-.43c3.755 3.543 7.019 6.304 10.377 8.003 3.027 1.531 6.556 2.358 11.333 2.358 6.919 0 13.094-2.425 17.485-6.346 4.099-3.66 6.634-8.657 6.634-14.122s-2.535-10.462-6.634-14.122c-4.39-3.92-10.566-6.346-17.485-6.346-11.924 0-22.808-4.395-30.766-11.502-8.249-7.366-13.352-17.604-13.352-28.966h.039c0-11.384 5.088-21.621 13.313-28.966 5.633-5.031 12.733-8.702 20.631-10.418l-.23-9.632c-.129-5.501 4.225-10.066 9.727-10.195 5.501-.129 10.066 4.225 10.195 9.727l.248 10.374c3.995.96 8.173 2.404 12.032 4.199 6.894 3.206 13.267 7.748 16.753 13.053 3.02 4.595 1.744 10.769-2.851 13.789s-10.769 1.744-13.789-2.851c-1.276-1.941-4.578-4.054-8.472-5.865-4.901-2.279-10.089-3.721-13.476-3.721v.039c-6.919 0-13.094 2.425-17.485 6.346-4.123 3.681-6.673 8.68-6.673 14.122h.039c0 5.465 2.535 10.462 6.634 14.122 4.39 3.92 10.566 6.346 17.485 6.346 11.924 0 22.808 4.395 30.766 11.502 8.249 7.367 13.352 17.605 13.352 28.966 0 11.362-5.103 21.599-13.353 28.966-5.627 5.025-12.719 8.695-20.606 10.413l.206 8.516c.129 5.501-4.225 10.066-9.727 10.195s-10.066-4.225-10.195-9.727l-.212-8.796c-3.828-.759-7.272-1.989-10.549-3.646-5.505-2.783-10.07-6.57-15.066-11.283z" fill="#f5b945"/></g></svg>