<svg id="Layer_1" enable-background="new 0 0 512 512" height="512" viewBox="0 0 512 512" width="512" xmlns="http://www.w3.org/2000/svg"><g clip-rule="evenodd" fill-rule="evenodd"><path d="m134.38 360.127v103.249h230.12v16h-238.12c-4.418 0-8-3.582-8-8v-111.249zm214.51-4.439h-117.265l-18.877-18.877c-3.124-3.124-8.189-3.124-11.313 0s-3.124 8.189 0 11.313l21.179 21.179c1.451 1.472 3.468 2.385 5.698 2.385h120.578c4.418 0 8-3.582 8-8s-3.582-8-8-8zm11.11-107.687c4.418 0 8 3.582 8 8s-3.582 8-8 8h-140.251c-4.418 0-8-3.582-8-8s3.582-8 8-8zm-11.11-107.688c4.418 0 8 3.582 8 8s-3.582 8-8 8h-115.672l-19.002 38.004c-1.967 3.935-6.753 5.53-10.687 3.562-3.935-1.967-5.53-6.753-3.562-10.688l20.883-41.766c1.158-2.991 4.063-5.113 7.462-5.113h120.578zm-230.509 11.56h16v-103.248h225.619v-16h-233.62c-4.418 0-8 3.582-8 8v111.248z" fill="#a79ba7"/><g><ellipse cx="126.381" cy="255.865" fill="#ffd064" rx="118.38" ry="118.38" transform="matrix(.973 -.23 .23 .973 -55.405 35.881)"/><path d="m121.389 137.589c63.064 2.616 113.388 54.57 113.388 118.277s-50.324 115.661-113.388 118.277c1.655.069 3.319.103 4.991.103 65.38 0 118.38-53 118.38-118.38s-53.001-118.38-118.38-118.38c-1.672-.001-3.336.034-4.991.103z" fill="#f5b829"/><ellipse cx="126.381" cy="255.865" fill="#ffc338" rx="90.395" ry="90.396" transform="matrix(.981 -.194 .194 .981 -47.252 29.39)"/><path d="m46.767 255.865c0-48.114 37.59-87.449 85.004-90.237-1.783-.105-3.581-.158-5.391-.158-49.924 0-90.396 40.471-90.396 90.395s40.471 90.395 90.396 90.395c1.81 0 3.607-.053 5.391-.158-47.414-2.788-85.004-42.123-85.004-90.237z" fill="#f5b829"/><path d="m160.847 225.11c1.819 4.337-.222 9.328-4.559 11.148-4.337 1.819-9.328-.222-11.148-4.559-2.58-6.146-7.479-9.693-12.859-11.057-3.426-.868-7.007-.921-10.338-.251-3.231.65-6.204 1.965-8.528 3.855-2.898 2.356-4.737 5.751-4.533 9.957.186 3.838 2.191 6.471 4.985 8.295 3.783 2.469 8.998 3.84 13.961 4.655 7.123 1.17 14.899 3.122 21.411 7.053 7.504 4.53 13.163 11.344 14.435 21.82.098.808.16 1.768.186 2.875.229 9.594-4.144 16.74-10.716 21.726-5.204 3.949-11.758 6.382-18.243 7.478v4.961c0 4.705-3.814 8.519-8.519 8.519s-8.519-3.814-8.519-8.519v-5.126c-5.278-1.026-10.311-2.991-14.675-5.897-6.726-4.479-11.879-11.089-14.058-19.833-1.121-4.558 1.665-9.161 6.223-10.282s9.161 1.665 10.282 6.223c1.061 4.256 3.606 7.498 6.937 9.717 4.124 2.746 9.418 4.056 14.791 3.928.898-.021 1.984-.108 3.252-.262 4.549-.552 9.08-1.988 12.28-4.415 2.446-1.856 4.074-4.44 3.994-7.817-.006-.242-.045-.666-.119-1.278-.527-4.339-3.009-7.246-6.315-9.242-4.299-2.595-10.003-3.978-15.355-4.857-6.888-1.131-14.366-3.191-20.483-7.184-7.105-4.638-12.209-11.501-12.705-21.739-.493-10.167 3.885-18.319 10.789-23.933 4.279-3.48 9.543-5.912 15.162-7.156v-5.25c0-4.705 3.814-8.519 8.519-8.519s8.519 3.814 8.519 8.519v5.125c.505.106 1.008.223 1.508.349 10.235 2.596 19.547 9.325 24.438 20.973z" fill="#ffe177"/></g><g><path d="m347.016 331.063h148.219c4.821 0 8.765 3.944 8.765 8.765v47.719c0 4.821-3.944 8.765-8.765 8.765h-148.219c-4.821 0-8.765-3.944-8.765-8.765v-47.719c-.001-4.821 3.944-8.765 8.765-8.765z" fill="#f2d1a5"/><path d="m493.999 331.063h1.235c4.821 0 8.765 3.944 8.765 8.765v47.719c0 4.821-3.944 8.765-8.765 8.765h-148.218c-4.821 0-8.765-3.944-8.765-8.765v-1.235h146.984c4.821 0 8.765-3.944 8.765-8.765v-46.484z" fill="#ecba78"/><path d="m378.375 371.688c-4.418 0-8-3.582-8-8s3.582-8 8-8h85.5c4.418 0 8 3.582 8 8s-3.582 8-8 8z" fill="#fff"/></g><g><path d="m347.016 438.75h148.219c4.821 0 8.765 3.944 8.765 8.765v47.72c0 4.821-3.944 8.765-8.765 8.765h-148.219c-4.821 0-8.765-3.944-8.765-8.765v-47.72c-.001-4.821 3.944-8.765 8.765-8.765z" fill="#fe646f"/><path d="m493.999 438.75h1.235c4.821 0 8.765 3.944 8.765 8.765v47.72c0 4.821-3.944 8.765-8.765 8.765h-148.218c-4.821 0-8.765-3.944-8.765-8.765v-1.235h146.984c4.821 0 8.765-3.944 8.765-8.765v-46.485z" fill="#fd4755"/><path d="m378.375 479.375c-4.418 0-8-3.582-8-8s3.582-8 8-8h85.5c4.418 0 8 3.582 8 8s-3.582 8-8 8z" fill="#fff"/></g><g><path d="m347.016 115.688h148.219c4.821 0 8.765 3.944 8.765 8.765v47.72c0 4.821-3.944 8.765-8.765 8.765h-148.219c-4.821 0-8.765-3.944-8.765-8.765v-47.72c-.001-4.821 3.944-8.765 8.765-8.765z" fill="#ffe177"/><path d="m493.999 115.688h1.235c4.821 0 8.765 3.944 8.765 8.765v47.72c0 4.821-3.944 8.765-8.765 8.765h-148.218c-4.821 0-8.765-3.944-8.765-8.765v-1.235h146.984c4.821 0 8.765-3.944 8.765-8.765v-46.485z" fill="#ffd064"/><path d="m378.375 156.313c-4.418 0-8-3.582-8-8s3.582-8 8-8h85.5c4.418 0 8 3.582 8 8s-3.582 8-8 8z" fill="#fff"/></g><g><path d="m347.016 8h148.219c4.821 0 8.765 3.944 8.765 8.765v47.72c0 4.821-3.944 8.765-8.765 8.765h-148.219c-4.821 0-8.765-3.944-8.765-8.765v-47.72c-.001-4.821 3.944-8.765 8.765-8.765z" fill="#8ac9fe"/><path d="m493.999 8h1.235c4.821 0 8.765 3.944 8.765 8.765v47.72c0 4.821-3.944 8.765-8.765 8.765h-148.218c-4.821 0-8.765-3.944-8.765-8.765v-1.235h146.984c4.821 0 8.765-3.944 8.765-8.765v-46.485z" fill="#60b7ff"/><path d="m378.375 48.625c-4.418 0-8-3.582-8-8s3.582-8 8-8h85.5c4.418 0 8 3.582 8 8s-3.582 8-8 8z" fill="#fff"/></g><g><path d="m347.016 223.376h148.219c4.821 0 8.765 3.944 8.765 8.765v47.72c0 4.821-3.944 8.765-8.765 8.765h-148.219c-4.821 0-8.765-3.944-8.765-8.765v-47.72c-.001-4.821 3.944-8.765 8.765-8.765z" fill="#6cf5c2"/><path d="m493.999 223.376h1.235c4.821 0 8.765 3.944 8.765 8.765v47.72c0 4.821-3.944 8.765-8.765 8.765h-148.218c-4.821 0-8.765-3.944-8.765-8.765v-1.235h146.984c4.821 0 8.765-3.944 8.765-8.765v-46.485z" fill="#00e499"/><path d="m378.375 264c-4.418 0-8-3.582-8-8s3.582-8 8-8h85.5c4.418 0 8 3.582 8 8s-3.582 8-8 8z" fill="#fff"/></g></g></svg>